<svg xmlns="http://www.w3.org/2000/svg" viewBox="0 0 50 50" height="50" width="50">
  <g transform="matrix(2.0833333333333335,0,0,2.0833333333333335,0,0)">
    <path fill="none" stroke="#000000" stroke-linecap="round" stroke-linejoin="round" d="m13.368 16.998 3.995-9.71 3.7 1.521-3.996 9.711zm6.277-15.259a2 2 0 0 0-2.611 1.089l-3.043 7.4"></path>
    <path d="M19.646 1.739a2 2 0 0 1 3.7 1.522L21.062 8.81l-3.7-1.521zm-6.331 20.644.052-5.385 3.699 1.522-3.751 3.863zm-12.81.791a4.393 4.393 0 0 1 2.934-1.1c1.758 0 4.864 2.847 7.7.5" fill="none" stroke="#000000" stroke-linecap="round" stroke-linejoin="round"></path>
  </g>
</svg>