<svg viewBox="0 0 48 48" height="48" width="48" xmlns="http://www.w3.org/2000/svg">
  <g transform="matrix(2,0,0,2,0,0)">
    <path d="M23,.5A17.871,17.871,0,0,0,6.857,10.786L.5,23.5" fill="none" stroke="#000000" stroke-linecap="round" stroke-linejoin="round"></path>
    <path d="M3,18.5a11.742,11.742,0,0,0,10.867-7.295c.233-.569.482-1.1.738-1.6l-1.4-1.4A.414.414,0,0,1,13.5,7.5h2.329a14.418,14.418,0,0,1,7.218-5.872A.655.655,0,0,0,23.5,1V1A.5.5,0,0,0,23,.5" fill="none" stroke="#000000" stroke-linecap="round" stroke-linejoin="round"></path>
    <path d="M10.106 16.106L8.5 14.5" fill="none" stroke="#000000" stroke-linecap="round" stroke-linejoin="round"></path>
    <path d="M12.136 14.136L10.5 12.5" fill="none" stroke="#000000" stroke-linecap="round" stroke-linejoin="round"></path>
  </g>
</svg>