<svg viewBox="0 0 50 50" height="50" width="50" xmlns="http://www.w3.org/2000/svg">
  <g transform="matrix(2.0833333333333335,0,0,2.0833333333333335,0,0)">
    <path d="M23.5,19.5a2,2,0,0,1-2,2H2.5a2,2,0,0,1-2-2v-1h23Z" fill="none" stroke="#000000" stroke-linecap="round" stroke-linejoin="round"></path>
    <path d="M2.5 21.5L2.5 23.5" fill="none" stroke="#000000" stroke-linecap="round" stroke-linejoin="round"></path>
    <path d="M21.5 21.5L21.5 23.5" fill="none" stroke="#000000" stroke-linecap="round" stroke-linejoin="round"></path>
    <path d="M12,18.5H7V1.5a1,1,0,0,1,1-1h3a1,1,0,0,1,1,1Z" fill="none" stroke="#000000" stroke-linecap="round" stroke-linejoin="round"></path>
    <path d="M17.144,18.5,15.156,2.094A1,1,0,0,1,16.028.981L19.006.62a1,1,0,0,1,1.113.873L22.18,18.5" fill="none" stroke="#000000" stroke-linecap="round" stroke-linejoin="round"></path>
    <path d="M15,18.5H12V3.5h2a1,1,0,0,1,1,1Z" fill="none" stroke="#000000" stroke-linecap="round" stroke-linejoin="round"></path>
    <path d="M7,18.5H2V1.5a1,1,0,0,1,1-1H6a1,1,0,0,1,1,1Z" fill="none" stroke="#000000" stroke-linecap="round" stroke-linejoin="round"></path>
    <path d="M9 15.5L10 15.5" fill="none" stroke="#000000" stroke-linecap="round" stroke-linejoin="round"></path>
    <path d="M4 15.5L5 15.5" fill="none" stroke="#000000" stroke-linecap="round" stroke-linejoin="round"></path>
    <path d="M4.5 3.5L4.5 12.5" fill="none" stroke="#000000" stroke-linecap="round" stroke-linejoin="round"></path>
    <path d="M9.5 3.5L9.5 12.5" fill="none" stroke="#000000" stroke-linecap="round" stroke-linejoin="round"></path>
    <path d="M18.000 13.500 A1.000 1.000 0 1 0 20.000 13.500 A1.000 1.000 0 1 0 18.000 13.500 Z" fill="none" stroke="#000000" stroke-linecap="round" stroke-linejoin="round"></path>
  </g>
</svg>